<?xml version="1.0" encoding="UTF-8"?>
<svg width="779px" height="158px" viewBox="0 0 779 158" version="1.1" xmlns="http://www.w3.org/2000/svg" xmlns:xlink="http://www.w3.org/1999/xlink" preserveAspectRatio="true">    
    <g id="Page-1" stroke="none" stroke-width="1" fill="none" fill-rule="evenodd">
        <path d="M15.920049,17.7994992 C24.0275219,17.7994992 35.2304073,18.5365311 49.5290413,20.0106171 L49.9712649,20.0106171 C50.1186735,18.8313483 50.5608926,18.2417228 51.2979356,18.2417228 C52.6983173,18.2417228 53.8775684,18.9787547 54.8357243,20.4528407 C92.8671426,22.9587869 111.882566,24.5802571 111.882566,25.3173001 L116.747026,26.2017473 L116.747026,27.0861945 L102.153648,27.9706416 C95.6676693,27.9706416 80.4848115,27.0862033 56.6046186,25.3173001 L57.0468422,34.6039954 L54.3935007,98.7264149 L54.3935007,108.455334 L54.8357243,120.39537 L53.06683,121.279818 C50.7082924,121.279818 49.5290413,115.973188 49.5290413,105.359769 L52.1823828,38.5840076 L52.1823828,29.2973124 C52.1823828,26.3491404 51.88757,24.8750765 51.2979356,24.8750765 C34.8618769,23.1061734 23.3641788,22.221735 16.8044962,22.221735 C11.2029694,22.221735 6.48596505,23.5483925 2.6533415,26.2017473 L2.6533415,26.6439709 L9.28669524,27.9706416 L9.28669524,28.8550888 C3.09553412,28.3391587 0,27.4547204 0,26.2017473 L0,25.7595237 C1.84260748,20.4528142 7.1492374,17.7994992 15.920049,17.7994992 Z M69.2079907,52.6246064 C70.3872595,53.0668322 70.9768851,53.5090513 70.9768851,53.9512771 C68.9131647,68.5447283 67.88132,78.5683626 67.88132,84.0224808 L67.88132,88.002493 L68.3235436,88.002493 C69.9450381,78.5683427 72.4509467,73.8513383 75.8413445,73.8513383 L77.1680152,73.4091148 C81.5902732,73.4091148 83.801369,79.8949958 83.801369,92.8669524 L81.590251,94.1936232 C79.5265307,94.1936232 78.3472796,89.6240252 78.0524624,80.4846921 L77.6102388,78.7157978 L77.1680152,78.2735742 L76.7257916,78.2735742 C74.5146627,80.4847031 72.745786,85.9387395 71.4191086,94.6358467 C70.5346571,96.4047499 69.355406,97.2891882 67.88132,97.2891882 C65.0068523,97.2891882 63.3853821,93.6040286 63.0168606,86.2335987 C64.1224251,63.8274918 66.1861145,52.6246064 69.2079907,52.6246064 Z M109.118669,70.3135497 L110.44534,70.3135497 C111.034974,70.3135497 111.6246,71.197988 112.214234,72.9668912 C111.6246,74.2935686 111.329787,76.2098516 111.329787,78.7157978 L111.329787,79.6002449 C111.329787,85.4965888 115.014947,88.4447166 122.385377,88.4447166 L125.038718,88.4447166 C126.660213,88.4447166 129.166121,87.855091 132.556519,86.6758223 L132.998743,86.6758223 C127.765737,90.5084458 122.901327,92.4247288 118.405364,92.4247288 L117.078694,92.4247288 C112.877549,92.4247288 109.782014,90.0662266 107.791998,85.3491515 C103.443445,91.5403126 99.4634723,94.6358467 95.8519616,94.6358467 L93.6408437,94.6358467 C90.3978545,94.0462124 88.7763843,92.4247421 88.7763843,89.7713873 L88.7763843,87.1180458 C90.3978789,79.1579815 94.3778513,75.1780091 100.716421,75.1780091 L101.158645,74.7357855 L106.465328,76.0624563 L106.465328,75.6202327 C106.465328,73.1142865 107.349766,71.3454099 109.118669,70.3135497 Z M93.1986201,88.4447166 L93.1986201,88.8869402 L94.5252909,90.2136109 L94.9675144,90.2136109 C98.7264337,90.2136109 102.116781,86.5284512 105.138657,79.1580213 L104.696433,79.1580213 C98.726385,79.1580213 95.0412254,81.3691171 93.6408437,85.7913751 L93.1986201,88.4447166 Z M125.149274,59.4790719 L126.475945,59.4790719 C127.360396,59.7738891 127.802615,60.6583274 127.802615,62.1324134 L127.802615,64.3435313 L126.033721,85.5702633 L126.033721,86.0124869 L126.475945,86.0124869 C129.350412,73.9249818 131.856321,67.88132 133.993746,67.88132 L134.435969,67.88132 C137.973776,67.88132 139.742652,73.6301691 139.742652,85.1280397 C142.174894,97.8051791 144.975615,104.143654 148.1449,104.143654 C149.029352,104.143654 150.650822,103.111809 153.00936,101.048089 L153.00936,101.490312 C150.871935,105.028119 148.660839,106.796995 146.376006,106.796995 L145.491559,106.796995 C139.890032,106.796995 136.204872,96.4785482 134.435969,75.8413445 L133.993746,75.8413445 C130.013713,91.245543 127.360399,100.089926 126.033721,102.374759 L124.70705,103.259207 L123.38038,103.259207 C121.611476,102.448459 120.727038,100.532176 120.727038,97.5103 C122.274828,72.1560212 123.748892,59.4790719 125.149274,59.4790719 Z M163.51217,34.8251072 C164.986256,35.4884458 165.723288,37.1099161 165.723288,39.6895666 C165.723288,43.3747815 163.364786,52.3665711 158.64771,66.6652051 L171.472194,46.7651439 L172.356641,46.7651439 L173.683312,48.0918146 L173.683312,49.4184854 C173.683312,51.3347972 169.408527,58.9999293 160.858828,72.4141117 C156.731388,79.8582459 154.667698,85.607095 154.667698,89.6608314 C154.667698,93.493455 160.269141,95.7045508 171.472194,96.2941852 C176.7052,97.7682712 179.653327,99.242335 180.316666,100.716421 L179.874442,100.716421 L174.567759,99.8319738 L163.954393,99.8319738 C160.416587,99.8319738 157.321053,99.0949419 154.667698,97.6208559 C153.341021,99.6845763 151.866957,100.716421 150.245462,100.716421 C148.476559,100.716421 147.297308,98.9475444 146.707674,95.409738 C146.707674,88.3341253 150.835052,73.1512675 159.089934,49.860709 L162.185499,35.2673307 L162.627723,34.8251072 L163.51217,34.8251072 Z M151.129909,94.0830673 L151.129909,98.9475267 C152.6777,98.9475267 153.562138,98.5053075 153.783251,97.6208559 L153.783251,97.1786323 L151.129909,94.0830673 Z M181.422225,65.6702021 C182.896311,65.6702021 184.222968,66.5546404 185.402237,68.3235436 L185.402237,69.2079907 L184.075566,70.5346615 L183.633343,70.0924379 C179.284789,70.4609594 176.926287,71.3453977 176.557765,72.7457794 C178.474077,75.6939514 182.601456,79.5265174 188.940026,84.2435925 C190.119295,86.2336086 190.70892,87.8550789 190.70892,89.108052 L190.70892,90.4347227 C190.70892,94.2673463 187.760792,96.7732548 181.864448,97.9525236 L180.537778,97.9525236 C176.999971,97.2154806 175.231095,95.446604 175.231095,92.6458406 L175.231095,91.7613935 L176.557765,90.4347227 L176.999989,90.4347227 C177.294806,92.4984431 178.916277,93.5302878 181.864448,93.5302878 C184.81262,92.7195405 186.286684,91.2454766 186.286684,89.108052 C186.286684,88.0761918 182.748931,84.8332513 175.673318,79.3791331 C173.019964,76.2098483 171.693306,73.8513461 171.693306,72.3035558 C171.693306,69.2079752 174.936247,66.9968794 181.422225,65.6702021 Z M266.771376,11.1661455 C269.719548,11.9031885 271.193612,14.7039098 271.193612,19.5683935 C269.424709,34.7514791 260.138107,54.6513414 243.333527,79.2685772 C242.670188,79.2685772 242.227969,82.5115178 242.006856,88.9974961 C261.169973,93.7882755 270.751389,102.19044 270.751389,114.20424 L270.751389,115.088687 C270.751389,122.532822 266.62401,129.755735 258.369128,136.757643 L252.620222,138.526537 L251.735775,138.526537 C242.006807,138.526537 237.142396,123.491086 237.142396,93.4197319 L237.142396,92.9775083 C235.889423,91.5771266 231.172419,90.6926883 222.991242,90.3241668 C212.893753,90.3241668 206.113059,92.5352626 202.648957,96.9575206 L201.76451,99.1686385 L200.880063,99.1686385 C200.880063,96.3678751 203.82819,93.4197474 209.724534,90.3241668 C213.851975,88.5552636 220.485262,87.6708253 229.624595,87.6708253 L237.58462,88.1130489 L237.58462,87.6708253 C239.574636,64.3065625 242.227951,49.7133302 245.544644,43.8906906 C251.367284,27.3072233 257.705759,16.5465571 264.560258,11.6083691 L266.771376,11.1661455 Z M244.217974,69.5396584 C245.765764,68.212981 250.777581,59.5160042 259.253575,43.448467 C264.265468,30.623919 266.771376,22.5165677 266.771376,19.12617 L266.329153,16.4728285 L265.886929,16.4728285 C256.968709,25.6858658 250.335422,39.836879 245.986868,58.9262924 L244.217974,69.5396584 Z M242.006856,93.4197319 L241.564632,93.8619555 L241.564632,94.3041791 C241.564632,114.72027 244.070541,127.692032 249.082433,133.219854 L252.177998,134.104302 C256.15803,134.104302 260.285409,129.976923 264.560258,121.722041 L266.329153,114.646464 C266.329153,105.286018 258.221802,98.2105113 242.006856,93.4197319 Z M278.048078,68.9868789 C281.291067,69.2079918 282.912537,70.5346493 282.912537,72.9668912 L281.143643,74.2935619 L280.701419,73.8513383 L280.259196,73.8513383 L280.259196,74.2935619 C282.91255,77.4628468 284.239208,79.821349 284.239208,81.3691393 L284.239208,84.4647043 C281.143627,92.4247686 275.984404,96.4047411 268.761383,96.4047411 L266.108041,96.4047411 C261.9806,95.4465852 259.916911,93.3828958 259.916911,90.2136109 L259.916911,88.8869402 C259.916911,83.3591177 264.486509,77.1680495 273.625842,70.3135497 L278.048078,68.9868789 Z M273.183618,76.0624563 L269.203606,80.4846921 L269.203606,84.0224808 L268.319159,84.0224808 L268.319159,81.8113628 C267.213594,81.8113628 265.886937,84.3172714 264.339147,89.3291638 C264.339147,91.0980669 265.370991,91.9825052 267.434712,91.9825052 L269.203606,91.9825052 C276.279219,89.6239677 279.816972,86.6758399 279.816972,83.1380336 L279.816972,82.69581 C278.563999,78.2735521 276.352903,76.0624563 273.183618,76.0624563 Z M305.576496,65.8913139 C309.409119,65.8913139 311.251699,67.1442681 311.104291,69.6502143 C310.956882,72.1561605 308.819489,72.3772701 304.692049,70.3135497 C296.879393,72.8932002 292.973124,76.467805 292.973124,81.0374716 L292.5309,93.1986201 L292.5309,93.6408437 L293.415347,94.9675144 L293.415347,98.5053031 L291.646453,100.274197 C288.993098,100.274197 287.666441,97.1786633 287.666441,90.9875022 L288.550888,81.4796952 C287.666436,81.4796952 287.224217,81.1848824 287.224217,80.595248 L287.224217,79.7108008 C288.698303,76.0992902 289.877554,71.3822858 290.762006,65.5596462 L291.204229,65.1174226 L292.088677,65.1174226 C292.973128,65.1174226 293.415347,67.181112 293.415347,71.3085527 C297.542788,67.6970421 301.596464,65.8913139 305.576496,65.8913139 Z M374.010595,63.7907518 C375.484681,63.7907518 376.221713,64.8225965 376.221713,66.8863169 L376.663937,66.8863169 C373.273539,78.236779 371.578366,87.0811622 371.578366,93.4197319 L372.020589,98.7264149 L372.020589,111.108675 C395.384852,107.718277 409.241052,104.475337 413.589606,101.379756 L417.569618,97.8419677 L417.569618,98.7264149 C417.569618,101.158657 411.673363,104.69641 399.880675,109.339781 C385.066111,113.467222 375.779508,115.530911 372.020589,115.530911 C372.020589,126.291739 373.347247,139.410907 376.000601,154.88881 L376.000601,156.215481 C375.558376,157.394749 374.526531,157.984375 372.905036,157.984375 L347.256068,138.526537 C332.810026,128.28164 325.587113,120.469101 325.587113,115.088687 L325.587113,114.20424 C326.029339,111.256068 327.503403,109.782004 330.009349,109.782004 L330.451572,109.782004 L349.90941,111.550899 L367.15613,111.550899 L367.15613,90.7663904 L366.713906,90.7663904 C364.355369,97.2523687 361.554647,100.495309 358.311658,100.495309 L357.869434,100.495309 C354.331628,100.495309 352.562751,97.3997751 352.562751,91.208614 L352.562751,89.4397196 C352.71016,77.3522146 354.110521,71.3085527 356.763876,71.3085527 L357.206099,71.3085527 C357.869438,71.3085527 358.311657,72.0455847 358.53277,73.5196707 C357.50091,79.3423103 356.984987,85.3859721 356.984987,91.6508376 C357.2061,94.3041923 357.648319,95.6308498 358.311658,95.6308498 C363.028733,90.0293231 366.492783,83.8382548 368.703912,77.0574593 C369.662068,68.2129434 371.430945,63.7907518 374.010595,63.7907518 Z M417.569618,94.3041791 L418.454065,94.3041791 L418.454065,96.0730734 L417.569618,96.0730734 L417.569618,94.3041791 Z M330.451572,114.20424 L330.009349,114.646464 L330.009349,115.088687 C331.999365,120.61651 340.401529,128.576455 355.216093,138.968761 L370.693918,150.908798 L370.693918,150.466574 C368.335381,134.988671 367.15613,123.490973 367.15613,115.973135 L355.216093,116.415358 L330.451572,114.20424 Z M396.563998,68.9868789 C399.806987,69.2079918 401.428457,70.5346493 401.428457,72.9668912 L399.659563,74.2935619 L399.217339,73.8513383 L398.775116,73.8513383 L398.775116,74.2935619 C401.428471,77.4628468 402.755128,79.821349 402.755128,81.3691393 L402.755128,84.4647043 C399.659548,92.4247686 394.500324,96.4047411 387.277303,96.4047411 L384.623961,96.4047411 C380.496521,95.4465852 378.432831,93.3828958 378.432831,90.2136109 L378.432831,88.8869402 C378.432831,83.3591177 383.002429,77.1680495 392.141762,70.3135497 L396.563998,68.9868789 Z M391.699539,76.0624563 L387.719526,80.4846921 L387.719526,84.0224808 L386.835079,84.0224808 L386.835079,81.8113628 C385.729515,81.8113628 384.402857,84.3172714 382.855067,89.3291638 C382.855067,91.0980669 383.886912,91.9825052 385.950632,91.9825052 L387.719526,91.9825052 C394.795139,89.6239677 398.332892,86.6758399 398.332892,83.1380336 L398.332892,82.69581 C397.079919,78.2735521 394.868823,76.0624563 391.699539,76.0624563 Z M411.378488,69.2079907 L412.262935,69.2079907 L413.147382,70.0924379 L413.147382,70.9768851 C410.19921,80.2636267 408.725147,86.3072886 408.725147,89.108052 L408.725147,93.5302878 L409.609594,94.414735 C414.842599,89.7713641 419.70701,83.5802959 424.202972,75.8413445 L425.971866,75.3991209 L426.41409,75.3991209 L428.182984,77.6102388 L426.856313,86.896934 C426.856313,88.6658372 427.888158,90.2873075 429.951878,91.7613935 L435.700785,91.7613935 L446.314151,90.8769463 L446.314151,91.7613935 L433.047444,96.1836293 L430.394102,96.1836293 C425.971844,96.1836293 423.318529,93.2355015 422.434078,87.3391576 C416.611438,95.0044047 412.336653,98.8369708 409.609594,98.8369708 L407.398476,98.8369708 C405.039938,97.2891805 403.860687,94.7832719 403.860687,91.3191699 C403.860687,86.0124603 405.482157,79.3791729 408.725147,71.4191086 L411.378488,69.2079907 Z M452.063058,65.8913139 C455.895681,65.8913139 457.738261,67.1442681 457.590852,69.6502143 C457.443444,72.1561605 455.306051,72.3772701 451.17861,70.3135497 C443.365955,72.8932002 439.459686,76.467805 439.459686,81.0374716 L439.017462,93.1986201 L439.017462,93.6408437 L439.901909,94.9675144 L439.901909,98.5053031 L438.133015,100.274197 C435.47966,100.274197 434.153003,97.1786633 434.153003,90.9875022 L435.03745,81.4796952 C434.152998,81.4796952 433.710779,81.1848824 433.710779,80.595248 L433.710779,79.7108008 C435.184865,76.0992902 436.364116,71.3822858 437.248568,65.5596462 L437.690791,65.1174226 L438.575238,65.1174226 C439.45969,65.1174226 439.901909,67.181112 439.901909,71.3085527 C444.02935,67.6970421 448.083025,65.8913139 452.063058,65.8913139 Z M519.502154,70.3135497 L520.828825,70.3135497 C521.418459,70.3135497 522.008085,71.197988 522.597719,72.9668912 C522.008085,74.2935686 521.713272,76.2098516 521.713272,78.7157978 L521.713272,79.6002449 C521.713272,85.4965888 525.398432,88.4447166 532.768862,88.4447166 L535.422203,88.4447166 C537.043698,88.4447166 539.549606,87.855091 542.940004,86.6758223 L543.382228,86.6758223 C538.149222,90.5084458 533.284812,92.4247288 528.788849,92.4247288 L527.462179,92.4247288 C523.261033,92.4247288 520.165499,90.0662266 518.175483,85.3491515 C513.82693,91.5403126 509.846957,94.6358467 506.235447,94.6358467 L504.024329,94.6358467 C500.781339,94.0462124 499.159869,92.4247421 499.159869,89.7713873 L499.159869,87.1180458 C500.781364,79.1579815 504.761336,75.1780091 511.099906,75.1780091 L511.54213,74.7357855 L516.848813,76.0624563 L516.848813,75.6202327 C516.848813,73.1142865 517.733251,71.3454099 519.502154,70.3135497 Z M503.582105,88.4447166 L503.582105,88.8869402 L504.908776,90.2136109 L505.350999,90.2136109 C509.109919,90.2136109 512.500266,86.5284512 515.522142,79.1580213 L515.079918,79.1580213 C509.10987,79.1580213 505.42471,81.3691171 504.024329,85.7913751 L503.582105,88.4447166 Z M543.271672,65.6702021 C544.745758,65.6702021 546.072415,66.5546404 547.251684,68.3235436 L547.251684,69.2079907 L545.925013,70.5346615 L545.48279,70.0924379 C541.134236,70.4609594 538.775734,71.3453977 538.407212,72.7457794 C540.323524,75.6939514 544.450903,79.5265174 550.789473,84.2435925 C551.968741,86.2336086 552.558367,87.8550789 552.558367,89.108052 L552.558367,90.4347227 C552.558367,94.2673463 549.610239,96.7732548 543.713895,97.9525236 L542.387224,97.9525236 C538.849418,97.2154806 537.080541,95.446604 537.080541,92.6458406 L537.080541,91.7613935 L538.407212,90.4347227 L538.849436,90.4347227 C539.144253,92.4984431 540.765723,93.5302878 543.713895,93.5302878 C546.662067,92.7195405 548.136131,91.2454766 548.136131,89.108052 C548.136131,88.0761918 544.598378,84.8332513 537.522765,79.3791331 C534.86941,76.2098483 533.542753,73.8513461 533.542753,72.3035558 C533.542753,69.2079752 536.785693,66.9968794 543.271672,65.6702021 Z M566.598966,65.6702021 C568.073052,65.6702021 569.399709,66.5546404 570.578978,68.3235436 L570.578978,69.2079907 L569.252307,70.5346615 L568.810084,70.0924379 C564.46153,70.4609594 562.103028,71.3453977 561.734506,72.7457794 C563.650818,75.6939514 567.778197,79.5265174 574.116767,84.2435925 C575.296035,86.2336086 575.885661,87.8550789 575.885661,89.108052 L575.885661,90.4347227 C575.885661,94.2673463 572.937533,96.7732548 567.041189,97.9525236 L565.714518,97.9525236 C562.176712,97.2154806 560.407835,95.446604 560.407835,92.6458406 L560.407835,91.7613935 L561.734506,90.4347227 L562.17673,90.4347227 C562.471547,92.4984431 564.093017,93.5302878 567.041189,93.5302878 C569.989361,92.7195405 571.463425,91.2454766 571.463425,89.108052 C571.463425,88.0761918 567.925672,84.8332513 560.850059,79.3791331 C558.196704,76.2098483 556.870047,73.8513461 556.870047,72.3035558 C556.870047,69.2079752 560.112987,66.9968794 566.598966,65.6702021 Z M583.624574,66.8863169 L584.066797,66.8863169 L585.835691,68.6552112 L585.835691,69.0974348 L584.066797,87.6708253 L584.951244,97.3997441 L583.624574,97.8419677 C580.971219,96.9575161 579.644561,94.4516076 579.644561,90.3241668 L579.644561,86.3441546 C580.529013,73.3721979 581.85567,66.8863169 583.624574,66.8863169 Z M585.61458,49.5290413 L586.499027,49.5290413 C588.26793,49.5290413 589.8894,50.8556988 591.363486,53.5090535 L591.363486,55.7201714 C591.363486,57.341666 590.331642,58.8157299 588.267921,60.1424073 L586.94125,60.1424073 C583.993078,59.7001815 582.519015,58.373524 582.519015,56.162395 L582.519015,54.3935007 C582.519015,52.6245975 583.550859,51.0031273 585.61458,49.5290413 Z M602.861299,65.6702021 C604.335385,65.6702021 605.662043,66.5546404 606.841312,68.3235436 L606.841312,69.2079907 L605.514641,70.5346615 L605.072417,70.0924379 C600.723864,70.4609594 598.365362,71.3453977 597.99684,72.7457794 C599.913152,75.6939514 604.040531,79.5265174 610.3791,84.2435925 C611.558369,86.2336086 612.147995,87.8550789 612.147995,89.108052 L612.147995,90.4347227 C612.147995,94.2673463 609.199867,96.7732548 603.303523,97.9525236 L601.976852,97.9525236 C598.439046,97.2154806 596.670169,95.446604 596.670169,92.6458406 L596.670169,91.7613935 L597.99684,90.4347227 L598.439064,90.4347227 C598.733881,92.4984431 600.355351,93.5302878 603.303523,93.5302878 C606.251695,92.7195405 607.725759,91.2454766 607.725759,89.108052 C607.725759,88.0761918 604.188006,84.8332513 597.112393,79.3791331 C594.459038,76.2098483 593.132381,73.8513461 593.132381,72.3035558 C593.132381,69.2079752 596.375321,66.9968794 602.861299,65.6702021 Z M623.203584,35.5989984 L624.530255,35.5989984 C626.004341,35.5989984 626.741373,39.4315645 626.741373,47.0968116 L626.741373,50.1923767 L627.183596,50.1923767 L639.565857,47.5390352 L644.430316,47.5390352 C647.968123,47.5390352 651.211063,49.750131 654.159235,54.1723889 L654.159235,55.0568361 L653.717011,55.0568361 C650.916248,52.6982985 648.115527,51.5190474 645.314763,51.5190474 C632.342807,52.8457248 625.856926,54.7620078 625.856926,57.267954 C623.203571,78.1999749 621.876913,91.9087689 621.876913,98.3947472 L621.876913,100.163642 L622.319137,100.163642 L622.319137,98.8369708 L623.203584,98.8369708 L623.203584,101.932536 C623.203584,103.996256 622.319146,105.028101 620.550243,105.028101 C618.486522,104.143649 617.454678,102.669585 617.454678,100.605865 L617.454678,96.6258529 C617.454678,89.255423 618.781335,76.1362545 621.43469,57.267954 L620.992466,57.267954 L609.05243,59.4790719 L606.399088,59.4790719 L604.630194,57.7101776 C604.630194,56.4572045 610.379043,54.5409215 621.876913,51.961271 L621.876913,42.6745758 L621.43469,38.6945635 C621.95062,36.6308431 622.540246,35.5989984 623.203584,35.5989984 Z M651.284782,70.3135497 L652.611453,70.3135497 C653.201087,70.3135497 653.790712,71.197988 654.380347,72.9668912 C653.790712,74.2935686 653.4959,76.2098516 653.4959,78.7157978 L653.4959,79.6002449 C653.4959,85.4965888 657.181059,88.4447166 664.551489,88.4447166 L667.204831,88.4447166 C668.826325,88.4447166 671.332234,87.855091 674.722632,86.6758223 L675.164855,86.6758223 C669.93185,90.5084458 665.067439,92.4247288 660.571477,92.4247288 L659.244806,92.4247288 C655.043661,92.4247288 651.948127,90.0662266 649.958111,85.3491515 C645.609557,91.5403126 641.629585,94.6358467 638.018074,94.6358467 L635.806956,94.6358467 C632.563967,94.0462124 630.942497,92.4247421 630.942497,89.7713873 L630.942497,87.1180458 C632.563992,79.1579815 636.543964,75.1780091 642.882534,75.1780091 L643.324757,74.7357855 L648.63144,76.0624563 L648.63144,75.6202327 C648.63144,73.1142865 649.515879,71.3454099 651.284782,70.3135497 Z M635.364733,88.4447166 L635.364733,88.8869402 L636.691404,90.2136109 L637.133627,90.2136109 C640.892546,90.2136109 644.282893,86.5284512 647.30477,79.1580213 L646.862546,79.1580213 C640.892498,79.1580213 637.207338,81.3691171 635.806956,85.7913751 L635.364733,88.4447166 Z M667.315387,59.4790719 L668.642057,59.4790719 C669.526509,59.7738891 669.968728,60.6583274 669.968728,62.1324134 L669.968728,64.3435313 L668.199834,85.5702633 L668.199834,86.0124869 L668.642057,86.0124869 C671.516525,73.9249818 674.022434,67.88132 676.159858,67.88132 L676.602082,67.88132 C680.139888,67.88132 681.908765,73.6301691 681.908765,85.1280397 C684.341007,97.8051791 687.141728,104.143654 690.311013,104.143654 C691.195465,104.143654 692.816935,103.111809 695.175472,101.048089 L695.175472,101.490312 C693.038048,105.028119 690.826952,106.796995 688.542119,106.796995 L687.657671,106.796995 C682.056145,106.796995 678.370985,96.4785482 676.602082,75.8413445 L676.159858,75.8413445 C672.179826,91.245543 669.526511,100.089926 668.199834,102.374759 L666.873163,103.259207 L665.546492,103.259207 C663.777589,102.448459 662.893151,100.532176 662.893151,97.5103 C664.440941,72.1560212 665.915005,59.4790719 667.315387,59.4790719 Z M702.361606,69.0974348 L703.688276,69.0974348 C707.5209,69.6133649 709.437183,71.2348352 709.437183,73.9618942 L709.437183,74.4041178 L708.552736,75.288565 L707.668289,75.288565 C707.668289,74.1092962 706.636444,73.5196707 704.572723,73.5196707 L703.246053,73.5196707 C698.455273,73.5196707 694.91752,78.236675 692.632687,87.6708253 L692.632687,88.1130489 C692.632687,91.0612209 695.138595,92.5352847 700.150488,92.5352847 L700.592711,92.5352847 C704.941265,92.5352847 709.805676,91.50344 715.186089,89.4397196 L715.186089,90.3241668 C708.84752,94.7464248 704.720141,96.9575206 702.803829,96.9575206 L698.823817,96.9575206 C692.853769,96.9575206 689.316015,94.451612 688.210451,89.4397196 L688.210451,87.2286017 C688.210451,82.4378223 690.71636,77.2785988 695.728252,71.7507763 C698.529015,69.9818732 700.740111,69.0974348 702.361606,69.0974348 Z M732.543365,68.2129877 L734.754483,68.2129877 C737.702655,68.8026221 739.176719,70.2766859 739.176719,72.6352235 L739.176719,73.9618942 C739.176719,79.2686038 734.312308,84.1330145 724.583341,88.5552725 L721.929999,88.9974961 L718.834434,88.9974961 C718.834434,91.0612164 720.161092,92.0930611 722.814446,92.0930611 L725.467788,92.0930611 C729.816341,92.0930611 738.365912,90.4715909 751.116756,87.2286017 C741.977423,93.71458 733.133039,96.9575206 724.583341,96.9575206 C717.802545,96.9575206 714.412198,94.8938311 714.412198,90.7663904 L714.412198,88.9974961 C714.412198,84.3541252 718.244764,78.3104634 725.910011,70.8663292 C728.563366,69.097426 730.774462,68.2129877 732.543365,68.2129877 Z M721.487776,84.5752602 C726.647076,83.3959915 731.069268,80.1530509 734.754483,74.8463414 L734.754483,73.5196707 L733.870036,72.6352235 C729.300369,72.6352235 725.025584,76.6151959 721.045552,84.5752602 L721.487776,84.5752602 Z M776.212944,0 L777.539615,0 C778.424066,0.294817196 778.866285,1.17925552 778.866285,2.6533415 L778.866285,3.98001225 C778.866285,6.04373262 775.181126,17.8362436 767.810696,39.3578989 C762.209169,60.2162155 759.408448,73.3353839 759.408448,78.7157978 L758.524001,78.7157978 C756.755097,77.4628247 755.870659,75.3991353 755.870659,72.5246676 C755.870659,62.9431087 761.914321,40.8321507 774.001826,6.19113016 L774.44405,3.53778866 L774.001826,3.53778866 L773.559602,3.09556508 C774.075533,1.7688877 774.959971,0.73704299 776.212944,0 Z M753.659541,97.2891882 C755.944374,97.2891882 757.565845,99.7950968 758.524001,104.806989 C757.713253,107.755161 756.828815,109.229225 755.870659,109.229225 L754.101765,109.229225 C751.374706,109.229225 749.753235,107.018129 749.237305,102.595871 L749.237305,101.711424 C749.900644,98.7632521 751.374708,97.2891882 753.659541,97.2891882 Z" id="Thanks-for-your-assi" fill="#FFFFFF"></path>
    </g>
</svg>