<?xml version="1.0" encoding="UTF-8"?>
<svg width="233px" height="75px" viewBox="0 0 233 75" version="1.1" xmlns="http://www.w3.org/2000/svg" xmlns:xlink="http://www.w3.org/1999/xlink">
    <!-- Generator: Sketch 49.1 (51147) - http://www.bohemiancoding.com/sketch -->
    <title>Logo</title>
    <desc>Created with Sketch.</desc>
    <defs></defs>
    <g id="Black" stroke="none" stroke-width="1" fill="none" fill-rule="evenodd">
        <g id="Artboard" transform="translate(0.000000, -1.000000)">
            <g id="Logo" transform="translate(0.000000, 1.000000)">
                <path d="M5.53248452,67.160396 L5.53248452,34.9056106 L0,34.9056106 L0,30.0079208 L5.53248452,30.0079208 L5.53248452,26.0547855 C5.53248452,23.5592835 5.75285382,21.7051766 6.19359902,20.4924092 C6.79672404,18.8598378 7.85797618,17.5363087 9.37738729,16.5217822 C10.8967984,15.5072557 13.0251019,15 15.7623616,15 C17.5253424,15 19.4738709,15.2098989 21.6080056,15.629703 L20.6685271,21.1221122 C19.3694886,20.8888877 18.1400599,20.7722772 16.9802041,20.7722772 C15.0780405,20.7722772 13.732628,21.180414 12.943926,21.9966997 C12.1552241,22.8129854 11.760879,24.3405829 11.760879,26.579538 L11.760879,30.0079208 L18.9635476,30.0079208 L18.9635476,34.9056106 L11.760879,34.9056106 L11.760879,67.160396 L5.53248452,67.160396 Z M22.3851051,23.1161716 L22.3851051,15.8745875 L28.6482951,15.8745875 L28.6482951,23.1161716 L22.3851051,23.1161716 Z M22.3851051,67.160396 L22.3851051,30.0079208 L28.6482951,30.0079208 L28.6482951,67.160396 L22.3851051,67.160396 Z M36.6976541,67.160396 L36.6976541,30.0079208 L42.3345252,30.0079208 L42.3345252,35.290429 C45.0485877,31.2090005 48.9688416,29.1683168 54.0954042,29.1683168 C56.3223273,29.1683168 58.3694421,29.570623 60.23681,30.3752475 C62.1041778,31.179872 63.5017831,32.235197 64.4296677,33.5412541 C65.3575524,34.8473113 66.0070619,36.3982308 66.3782157,38.1940594 C66.6101869,39.3601818 66.7261708,41.4008655 66.7261708,44.3161716 L66.7261708,67.160396 L60.4629807,67.160396 L60.4629807,44.5610561 C60.4629807,41.9955867 60.2194147,40.0773441 59.7322752,38.8062706 C59.2451358,37.5351972 58.3810562,36.5206859 57.1400105,35.7627063 C55.8989648,35.0047267 54.4433676,34.6257426 52.7731752,34.6257426 C50.1055069,34.6257426 47.8032276,35.4769992 45.8662684,37.179538 C43.9293092,38.8820767 42.9608442,42.1121874 42.9608442,46.869967 L42.9608442,67.160396 L36.6976541,67.160396 Z M100.141449,55.1960396 L106.613412,56.0006601 C105.592739,59.8022192 103.702203,62.7524648 100.941746,64.8514851 C98.1812891,66.9505055 94.6553803,68 90.3639138,68 C84.9589858,68 80.6733829,66.3266394 77.5069765,62.979868 C74.3405702,59.6330966 72.7573908,54.9395242 72.7573908,48.8990099 C72.7573908,42.6485936 74.3579678,37.797597 77.5591698,34.3458746 C80.7603718,30.8941522 84.9125933,29.1683168 90.0159588,29.1683168 C94.9569446,29.1683168 98.9931822,30.859169 102.124793,34.2409241 C105.256404,37.6226792 106.822185,42.3803874 106.822185,48.5141914 C106.822185,48.8873506 106.810587,49.447081 106.78739,50.1933993 L79.2293538,50.1933993 C79.461325,54.2748279 80.609565,57.3999892 82.6741083,59.5689769 C84.7386516,61.7379646 87.3134929,62.8224422 90.3987093,62.8224422 C92.6952238,62.8224422 94.6553507,62.2160677 96.2791489,61.0033003 C97.902947,59.790533 99.1903676,57.8547988 100.141449,55.1960396 Z M79.5773088,45.0158416 L100.21104,45.0158416 C99.932675,41.8906334 99.1439849,39.5467625 97.8449464,37.9841584 C95.8499944,35.5586237 93.2635547,34.3458746 90.0855498,34.3458746 C87.2091074,34.3458746 84.7908444,35.3137417 82.8306881,37.249505 C80.8705318,39.1852682 79.7860828,41.7740212 79.5773088,45.0158416 Z M112.922996,67.160396 L112.922996,30.0079208 L118.559867,30.0079208 L118.559867,35.640264 C119.998089,33.0048273 121.326104,31.2673309 122.543952,30.4277228 C123.761801,29.5881146 125.101414,29.1683168 126.562832,29.1683168 C128.67377,29.1683168 130.819471,29.8446577 133,31.1973597 L130.842679,37.039604 C129.311669,36.1300285 127.780683,35.6752475 126.249673,35.6752475 C124.881043,35.6752475 123.651614,36.0892148 122.56135,36.9171617 C121.471086,37.7451087 120.693994,38.893722 120.230051,40.3630363 C119.534138,42.6019914 119.186186,45.0508118 119.186186,47.709571 L119.186186,67.160396 L112.922996,67.160396 Z" id="finer-copy-9" fill="#000000"></path>
                <path d="M144.205351,29.1350578 C147.853905,27.0713451 151.834145,30.4384552 148.517278,33.0452501 C143.65254,35.5434286 144.205351,49.3377183 144.758162,53.4651436 C144.758162,54.0082258 145.974347,61.1769118 147.411656,62.2630764 C148.185591,61.5027612 148.62784,60.8510625 149.401776,60.0907473 C152.718643,58.2442675 156.146073,60.6338295 154.487639,63.4578574 C153.160892,64.4354055 152.165832,65.52157 150.728523,66.2818852 C141.441295,70.8437763 141.441295,57.7011853 141.109608,53.8996094 C140.667359,49.6635676 140.446235,44.9930601 140.446235,40.7570184 C140.446235,39.0191551 140.335673,37.2812918 140.667359,35.4348121 C140.999046,32.1763185 141.330733,31.0901539 144.205351,29.1350578 Z M140.22511,22.9439199 C137.903303,21.8577553 139.119488,18.0561794 141.883544,16.535549 C142.436355,15.3407681 143.65254,14.7976858 145.532098,14.7976858 C155.372137,18.4906452 145.532098,25.5507148 140.22511,22.9439199 Z M155.704382,40.6286535 C155.372696,39.6511054 155.262133,38.8907902 155.151571,38.130475 C154.819884,37.5873928 154.59876,36.935694 154.59876,36.1753789 C154.59876,35.740913 154.59876,35.4150637 154.709322,35.1978308 C155.483258,32.4824194 157.915627,31.6134878 160.237434,33.4599675 C163.222614,38.4563244 161.232494,52.467847 163.00149,59.3106836 C164.438799,55.9435736 165.654984,52.3592306 166.871168,48.883504 C167.755666,46.8197914 168.971851,42.1492838 170.077473,39.8683383 C178.037954,23.3586372 186.108998,49.4265863 188.320242,54.7487926 C189.757551,58.5503685 189.315302,57.246971 190.863174,60.1796153 C191.747672,63.9811912 187.877993,65.8276709 185.2245,63.0036431 C183.234379,58.441752 178.81189,40.4114206 175.716147,38.8907902 C171.625344,41.1717358 166.98173,60.5054646 163.443739,66.4793696 C162.227554,67.7827671 160.569121,67.4569177 159.795185,65.8276709 C158.689563,60.9399305 157.58394,53.0109293 157.58394,52.9023128 C156.810005,48.6662711 156.257193,44.8646952 155.704382,40.6286535 Z M220.424054,27.0515967 C219.760681,28.2463777 218.986745,28.8980764 217.991685,29.1153093 C213.237509,34.8719814 209.36783,42.8009826 204.171405,48.5576547 L205.498152,48.5576547 C214.674818,49.7524357 219.539556,57.5728204 227.168351,62.1347115 C228.384535,62.4605608 229.490158,62.1347115 230.706342,62.2433279 C234.023209,63.6553418 233.691523,67.6741506 230.042969,68 C228.384535,67.8913835 227.057788,67.8913835 225.399355,67.4569177 C220.20293,66.0449038 214.674818,55.0746419 208.041084,52.467847 C205.38759,51.4902989 202.623534,52.2506141 199.97004,53.0109293 C199.638354,58.2245191 199.085542,63.6553418 196.321486,66.5879861 C193.115182,68.3258494 190.351126,65.0673557 192.451808,62.1347115 C193.336306,61.2657798 195.547551,51.8161483 196.432049,44.10438 C197.869358,31.8307207 199.196105,16.6244171 197.97992,3.59044253 L197.97992,2.28704507 C199.196105,-0.971448559 202.955221,-0.645599196 203.839719,2.61289444 L203.839719,3.69905898 C203.508032,9.23849816 202.623534,14.3434715 202.070723,19.6656778 C201.186225,28.0291448 200.633414,36.3926118 200.191165,44.7560788 C200.080603,45.7336268 200.080603,46.7111749 200.080603,47.9059559 C203.839719,43.6699142 207.156586,36.1753789 210.031204,31.0704055 C211.468513,28.1377612 213.679758,23.5758701 217.217749,22.7069385 C219.318432,22.7069385 220.092367,23.5758701 220.534616,25.3137334 C220.645179,25.8568157 220.645179,26.399898 220.424054,27.0515967 Z" id="ink-copy-3" fill="#000000"></path>
                <path d="M138,73 L232,73" id="Path-2" stroke="#000000" stroke-width="3"></path>
            </g>
        </g>
    </g>
</svg>