<?xml version="1.0" encoding="UTF-8"?>
<svg width="230px" height="63px" viewBox="0 0 230 63" version="1.1" xmlns="http://www.w3.org/2000/svg" xmlns:xlink="http://www.w3.org/1999/xlink" preserveAspectRatio="true">
    <defs></defs>
    <g id="Page-1" stroke="none" stroke-width="1" fill="none" fill-rule="evenodd">
        <g id="Artboard">
            <g id="Group">
                <path d="M6.98,31.44 L0.26,31.44 L0.26,27.66 L6.98,27.66 L6.98,17.09 C6.98,14.9899895 7.29499685,13.2516735 7.925,11.875 C8.55500315,10.4983265 9.336662,9.3900042 10.27,8.55 C11.203338,7.7099958 12.241661,7.11500175 13.385,6.765 C14.5283391,6.41499825 15.6133282,6.24 16.64,6.24 C18.6000098,6.24 20.2099937,6.5199972 21.47,7.08 L20.63,10.72 C19.696662,10.253331 18.4366746,10.02 16.85,10.02 C13.0699811,10.02 11.18,12.8899713 11.18,18.63 L11.18,27.66 L18.74,27.66 L18.74,31.44 L11.18,31.44 L11.18,60 L6.98,60 L6.98,31.44 Z M20.9200001,27.66 L25.1200001,27.66 L25.1200001,60 L20.9200001,60 L20.9200001,27.66 Z M19.8700001,14.85 C19.8700001,13.9633289 20.1733304,13.2166697 20.7800001,12.61 C21.3866698,12.0033303 22.133329,11.7 23.0200001,11.7 C23.9066712,11.7 24.6533304,12.0033303 25.2600001,12.61 C25.8666698,13.2166697 26.1700001,13.9633289 26.1700001,14.85 C26.1700001,15.7366711 25.8666698,16.4833303 25.2600001,17.09 C24.6533304,17.6966697 23.9066712,18 23.0200001,18 C22.133329,18 21.3866698,17.6966697 20.7800001,17.09 C20.1733304,16.4833303 19.8700001,15.7366711 19.8700001,14.85 Z M31.9200002,36.76 C31.9200002,36.1533303 31.8966671,35.4183376 31.8500002,34.555 C31.8033333,33.6916624 31.7683336,32.8166711 31.7450002,31.93 C31.7216667,31.0433289 31.6866671,30.2150039 31.6400002,29.445 C31.5933333,28.6749961 31.5700002,28.0800021 31.5700002,27.66 L35.7700002,27.66 C35.8166671,28.8733394 35.8516667,30.0399944 35.8750002,31.16 C35.8983336,32.2800056 35.9566664,33.0033317 36.0500002,33.33 L36.2600002,33.33 C37.1000044,31.5566578 38.4999904,30.0283398 40.4600002,28.745 C42.42001,27.4616602 44.7066538,26.82 47.3200002,26.82 C49.8400128,26.82 51.8933256,27.2166627 53.4800002,28.01 C55.0666748,28.8033373 56.3149956,29.8416603 57.2250002,31.125 C58.1350047,32.4083397 58.7649984,33.8899916 59.1150002,35.57 C59.4650019,37.2500084 59.6400002,38.9766578 59.6400002,40.75 L59.6400002,60 L55.4400002,60 L55.4400002,40.96 C55.4400002,39.6533268 55.3233347,38.3816729 55.0900002,37.145 C54.8566657,35.9083272 54.4483364,34.8000049 53.8650002,33.82 C53.2816639,32.8399951 52.4650054,32.0583362 51.4150002,31.475 C50.3649949,30.8916638 49.0000086,30.6 47.3200002,30.6 C45.7799925,30.6 44.3216737,30.8683307 42.9450002,31.405 C41.5683266,31.9416693 40.3783385,32.7583279 39.3750002,33.855 C38.3716618,34.9516722 37.5783364,36.3283251 36.9950002,37.985 C36.4116639,39.6416749 36.1200002,41.5899888 36.1200002,43.83 L36.1200002,60 L31.9200002,60 L31.9200002,36.76 Z M94.3000003,53.91 C92.6666588,56.3833457 90.6483456,58.1566613 88.2450003,59.23 C85.8416549,60.3033387 83.1933481,60.84 80.3000003,60.84 C77.8266546,60.84 75.586677,60.4200042 73.5800003,59.58 C71.5733236,58.7399958 69.8466742,57.5616742 68.4000003,56.045 C66.9533264,54.5283257 65.8450041,52.7316771 65.0750003,50.655 C64.3049964,48.578323 63.9200003,46.2800126 63.9200003,43.76 C63.9200003,41.3333212 64.316663,39.0933436 65.1100003,37.04 C65.9033376,34.9866564 67.0233264,33.2016742 68.4700003,31.685 C69.9166742,30.1683257 71.6199905,28.9783377 73.5800003,28.115 C75.5400101,27.2516624 77.7099884,26.82 80.0900003,26.82 C82.563346,26.82 84.7449908,27.2516624 86.6350003,28.115 C88.5250097,28.9783377 90.1116605,30.1216596 91.3950003,31.545 C92.67834,32.9683404 93.6466637,34.5899909 94.3000003,36.41 C94.9533369,38.2300091 95.2800003,40.073324 95.2800003,41.94 L95.2800003,44.88 L68.1200003,44.88 C68.1200003,45.7666711 68.2949985,46.8983264 68.6450003,48.275 C68.995002,49.6516735 69.6366623,50.9933268 70.5700003,52.3 C71.5033383,53.6066732 72.7516591,54.726662 74.3150003,55.66 C75.8783414,56.593338 77.8966546,57.06 80.3700003,57.06 C82.5166777,57.06 84.5933236,56.5466718 86.6000003,55.52 C88.606677,54.4933282 90.1466616,53.0933422 91.2200003,51.32 L94.3000003,53.91 Z M91.0800003,41.1 C91.0800003,39.6533261 90.7883365,38.3000063 90.2050003,37.04 C89.621664,35.7799937 88.8283386,34.6716715 87.8250003,33.715 C86.8216619,32.7583286 85.6316738,32.0000028 84.2550003,31.44 C82.8783267,30.8799972 81.420008,30.6 79.8800003,30.6 C77.5933222,30.6 75.6916745,31.066662 74.1750003,32 C72.658326,32.933338 71.4566714,34.0066606 70.5700003,35.22 C69.6833292,36.4333394 69.0533355,37.611661 68.6800003,38.755 C68.3066651,39.8983391 68.1200003,40.6799979 68.1200003,41.1 L91.0800003,41.1 Z M99.5600004,36.76 C99.5600004,36.1533303 99.5366673,35.4183376 99.4900004,34.555 C99.4433335,33.6916624 99.4083338,32.8166711 99.3850004,31.93 C99.3616669,31.0433289 99.3266673,30.2150039 99.2800004,29.445 C99.2333335,28.6749961 99.2100004,28.0800021 99.2100004,27.66 L103.41,27.66 C103.456667,28.8733394 103.491667,30.0399944 103.515,31.16 C103.538334,32.2800056 103.596667,33.0033317 103.69,33.33 C104.763339,31.4166571 106.139992,29.8533394 107.82,28.64 C109.500009,27.4266606 111.553322,26.82 113.98,26.82 C114.400002,26.82 114.808332,26.8549996 115.205,26.925 C115.601669,26.9950003 116.009998,27.0766662 116.43,27.17 L115.94,31.3 C115.379998,31.1133324 114.843336,31.02 114.33,31.02 C112.509991,31.02 110.935007,31.3116637 109.605,31.895 C108.274994,32.4783362 107.178338,33.2833282 106.315,34.31 C105.451663,35.3366718 104.810002,36.5383264 104.39,37.915 C103.969998,39.2916735 103.76,40.7733254 103.76,42.36 L103.76,60 L99.5600004,60 L99.5600004,36.76 Z" id="finer-copy-13" fill="#FFFFFF"></path>
                <polygon id="x-copy-2" fill-opacity="0.7" fill="#FFFFFF" points="118.94 47.5 113.99 41.14 116.3 41.14 120.14 46.39 123.95 41.14 126.2 41.14 121.31 47.5 127.25 55 124.91 55 120.08 48.73 115.34 55 113.18 55"></polygon>
                <path d="M176.534106,49.6817199 C179.098283,41.1854403 180.886044,32.4317952 183.137136,23.7783846 C184.107869,20.250339 185.078601,16.5962918 186.146407,13.1942479 C187.602505,8.53218768 187.218453,10.374134 188.383332,5.58607214 C188.771625,3.94805099 189.645284,2.56203309 190.42187,1.05001356 C191.101382,-0.210002712 193.042847,-0.336004339 194.110652,0.672008679 C195.178458,1.6800217 195.760897,4.07405261 195.275531,5.33406889 C194.984312,6.09007865 194.693092,6.97209004 194.304799,7.60209818 C190.227723,14.4061861 190.126409,16.2182869 187.990798,24.1563895 C186.534699,29.4484578 185.175674,34.7405261 183.913722,39.9065929 C183.816649,40.1585961 184.010795,40.536601 184.107869,40.6626026 C184.496162,40.6626026 184.981528,40.6626026 185.272747,40.536601 C185.66104,40.2845977 186.049333,39.7805912 186.340553,39.4025864 C186.825919,38.7725782 187.311285,38.0165685 187.505432,37.2605587 C188.379091,34.4885229 189.446896,32.094492 192.067874,31.7164871 C194.203485,30.0784659 196.339096,28.4404448 198.28056,26.5504204 C200.998611,23.7783846 203.716661,21.3843537 206.725932,19.3683276 C208.18203,18.4863162 210.026421,20.250339 210.026421,22.3923667 C209.929348,24.5343943 209.152762,26.2984171 207.793737,27.5584334 C204.299101,30.7084741 201.095684,34.2365196 197.115682,36.6305506 C196.144949,37.2605587 195.950803,39.1505831 196.630316,40.4105994 C200.416172,46.7106807 205.17276,49.6422989 210.900081,52.5403363 C215.947889,55.1863705 221.09277,56.0939496 226.528871,55.9679479 C227.499603,55.9679479 228.373262,55.8419463 229.052775,56.8499593 C229.343995,57.2279642 229.343995,58.7399837 229.149848,58.991987 C227.790823,60.1260016 226.043505,59.3699919 224.004967,60 C222.354722,59.8739984 220.122038,59.6219951 217.889353,59.2439902 C208.18203,57.4799675 199.930805,55.2787914 193.426899,45.7026677 C192.650313,44.5686531 191.873727,43.5606401 191.000068,42.6786287 C190.708848,42.4266254 190.029336,42.552627 189.738116,42.8046303 C186.437626,46.7106807 183.137136,50.7427328 180.807379,55.7827979 C180.593742,56.0601001 179.841944,58.0196931 179.341569,59.2430835 C179.284955,59.7532516 179.219058,60.2487001 179.025986,60.5424871 C178.252493,61.6619856 176.501986,61.3940337 175.851096,60.2001271 C174.726771,58.1745983 173.662049,56.0008911 173.102263,53.5761927 C172.483553,50.8962629 171.775776,48.2368957 171.097461,45.7051442 C170.950149,45.0670657 169.912173,44.6346131 169.555229,45.1202732 C169.019472,46.0504682 168.483716,46.9806632 167.888355,48.0590365 C166.63803,50.3639613 165.417167,52.7965019 164.196304,55.2290425 C162.915838,57.8097614 161.198304,58.5025094 159.325873,60.144553 C158.226255,61.0705078 157.277346,60.6174927 156.241407,58.9748109 C155.501452,57.8014669 155.170458,57.5816585 155.053967,56.2643763 C154.616106,51.9296825 154.178245,47.5949886 153.858912,43.3673479 C153.742421,42.0500657 153.596467,40.6051677 152.945578,39.4112611 C152.620133,38.8143077 152.323471,38.7483798 151.907602,38.9788085 C151.610261,39.3162903 151.283458,39.5261563 151.075184,39.8430755 C149.020544,43.9467026 146.580856,50.6015546 144.259697,54.3634598 C143.4266,55.6311365 142.593502,56.8988133 141.641876,58.059437 C140.422372,59.6851581 138.878102,60.3105162 137.126916,60.4459741 C136.295856,60.5034218 134.992039,59.3258375 134.726878,58.1772962 L134.343866,56.518292 C133.673023,49.5490337 133.180312,39.5386502 132.984262,32.5941947 C132.840346,29.9390676 134.534645,28.3381492 136.432464,29.2441795 C137.381373,29.6971947 138.387849,31.2122607 138.356349,32.2948741 C138.021396,37.3456567 138.428436,44.3595543 138.59774,49.5627553 C138.597061,49.966165 138.98211,50.41494 139.189026,50.9048403 C139.425404,51.5223562 140.048869,51.378418 140.614088,50.5758387 C140.822362,50.2589195 141.149165,50.0490535 141.446506,49.7115717 C142.785898,47.3860842 144.259697,44.1958008 145.464681,40.7351093 C147.667311,36.866151 150.25499,33.4459678 152.694678,29.7911158 C152.843349,29.6223749 153.021481,29.5812497 153.170152,29.4125088 C153.616163,28.9062862 154.802809,29.1699978 155.246783,29.8740043 C155.749681,30.8332421 156.341646,31.7719174 156.577345,32.792843 C157.313905,35.9832357 157.84287,39.0871378 158.045032,42.400906 C158.217732,45.5870585 158.598026,48.8597015 158.859792,52.0252913 C158.829651,52.3010854 159.096171,52.6428073 159.185237,52.6222447 C159.511361,52.8157883 160.015618,52.9682067 160.253354,52.7789033 C160.758969,52.1245023 161.264584,51.4701013 161.740737,50.6880846 C163.85498,46.4362792 166.05829,42.1639113 168.2616,37.8915433 C168.648686,37.1300893 169.124838,36.3480726 169.630453,35.6936716 C170.791033,33.812719 172.866306,35.0810339 173.545299,37.2093757 C174.460671,39.9552334 175.078703,43.0385729 175.815942,45.8255558 C176.059661,47.121715 176.2852,48.4103002 176.534106,49.6817199 Z M138.288989,17.198074 C142.268992,17.0720723 145.569482,18.4580902 148.578752,20.4741163 C148.772898,20.6001179 148.869972,20.9781228 148.772898,21.230126 C148.772898,21.3561277 148.578752,21.7341325 148.481679,21.7341325 C147.899239,21.8601342 147.3168,22.1121374 146.73436,22.1121374 C145.278262,22.1121374 143.919237,22.1121374 142.463138,21.9861358 C140.812893,21.8601342 139.259722,22.3641407 137.900696,23.624157 C137.41533,24.1281635 136.832891,24.5061683 136.347525,24.7581716 C135.765085,25.1361765 134.503133,24.5061683 134.308987,23.624157 C134.11484,22.6161439 134.017767,21.6081309 134.017767,20.6001179 C134.017767,19.3401016 134.891426,17.9540837 135.765085,17.7020805 C136.735818,17.4500772 137.803623,17.3240756 138.288989,17.198074 Z" id="ink-copy" fill="#FFFFFF"></path>
                <path d="M227.5,62 L111,62" id="Line-Copy-3" stroke="#FFFFFF" stroke-linecap="square"></path>
            </g>
        </g>
    </g>
</svg>